<?xml version="1.0" encoding="UTF-8" standalone="no"?>
<svg xmlns="http://www.w3.org/2000/svg" width="600" height="40" viewBox="0 0 600 40">
  <defs>
    <linearGradient id="resourceGradient" x1="0%" y1="0%" x2="0%" y2="100%">
      <stop offset="0%" style="stop-color:#232F3E;stop-opacity:1" />
      <stop offset="100%" style="stop-color:#1A232E;stop-opacity:1" />
    </linearGradient>
  </defs>
  <g>
    <!-- Base platform -->
    <rect x="0" y="30" width="600" height="10" fill="url(#resourceGradient)" stroke="#FF9900" stroke-width="1" />
    
    <!-- EC2 instances -->
    <g transform="translate(50, 10)">
      <rect x="0" y="0" width="20" height="20" rx="2" ry="2" fill="#EC7211" stroke="#232F3E" stroke-width="1" />
      <text x="10" y="14" font-family="Arial" font-size="8" fill="white" text-anchor="middle">EC2</text>
    </g>
    
    <g transform="translate(150, 10)">
      <rect x="0" y="0" width="20" height="20" rx="2" ry="2" fill="#EC7211" stroke="#232F3E" stroke-width="1" />
      <text x="10" y="14" font-family="Arial" font-size="8" fill="white" text-anchor="middle">EC2</text>
    </g>
    
    <!-- S3 buckets -->
    <g transform="translate(250, 10)">
      <path d="M0,10 L10,0 L20,10 L20,20 L0,20 Z" fill="#3B48CC" stroke="#232F3E" stroke-width="1" />
      <text x="10" y="17" font-family="Arial" font-size="8" fill="white" text-anchor="middle">S3</text>
    </g>
    
    <g transform="translate(350, 10)">
      <path d="M0,10 L10,0 L20,10 L20,20 L0,20 Z" fill="#3B48CC" stroke="#232F3E" stroke-width="1" />
      <text x="10" y="17" font-family="Arial" font-size="8" fill="white" text-anchor="middle">S3</text>
    </g>
    
    <!-- Lambda functions -->
    <g transform="translate(450, 10)">
      <rect x="0" y="0" width="20" height="20" rx="2" ry="2" fill="#FF9900" stroke="#232F3E" stroke-width="1" />
      <text x="10" y="14" font-family="Arial" font-size="8" fill="white" text-anchor="middle">λ</text>
    </g>
    
    <!-- DynamoDB -->
    <g transform="translate(530, 10)">
      <rect x="0" y="0" width="20" height="20" rx="2" ry="2" fill="#4D27AA" stroke="#232F3E" stroke-width="1" />
      <text x="10" y="14" font-family="Arial" font-size="6" fill="white" text-anchor="middle">DDB</text>
    </g>
  </g>
</svg>
