<?xml version="1.0" encoding="UTF-8" standalone="no"?>
<svg xmlns="http://www.w3.org/2000/svg" width="80" height="80" viewBox="0 0 80 80">
  <defs>
    <linearGradient id="bossGradient3" x1="0%" y1="0%" x2="0%" y2="100%">
      <stop offset="0%" style="stop-color:#212121;stop-opacity:1" />
      <stop offset="100%" style="stop-color:#000000;stop-opacity:1" />
    </linearGradient>
    <radialGradient id="coreGradient3" cx="50%" cy="50%" r="50%" fx="50%" fy="50%">
      <stop offset="0%" style="stop-color:#00FF00;stop-opacity:1" />
      <stop offset="100%" style="stop-color:#00C853;stop-opacity:1" />
    </radialGradient>
  </defs>
  <g>
    <!-- Hacker Boss - Level 3 -->
    <path d="M10,30 L40,10 L70,30 L70,60 L40,80 L10,60 Z" fill="url(#bossGradient3)" stroke="#000000" stroke-width="2" />
    
    <!-- Hoodie outline -->
    <path d="M25,30 C25,20 55,20 55,30 L55,50 C55,60 25,60 25,50 Z" fill="none" stroke="#00FF00" stroke-width="2" stroke-opacity="0.8" />
    
    <!-- Core -->
    <circle cx="40" cy="40" r="10" fill="url(#coreGradient3)" stroke="#00C853" stroke-width="1" />
    
    <!-- Anonymous mask hint -->
    <path d="M30,35 C30,32 50,32 50,35" stroke="#00FF00" stroke-width="2" stroke-opacity="0.8" fill="none" />
    
    <!-- Terminal code -->
    <text x="30" y="45" font-family="monospace" font-size="8" fill="#00FF00">$_</text>
    
    <!-- Weapon ports -->
    <circle cx="40" cy="10" r="5" fill="#00FF00" stroke="#00C853" stroke-width="1" />
    <circle cx="10" cy="30" r="5" fill="#00FF00" stroke="#00C853" stroke-width="1" />
    <circle cx="70" cy="30" r="5" fill="#00FF00" stroke="#00C853" stroke-width="1" />
    <circle cx="40" cy="70" r="5" fill="#00FF00" stroke="#00C853" stroke-width="1" />
  </g>
</svg>
