<?xml version="1.0" encoding="UTF-8" standalone="no"?>
<svg xmlns="http://www.w3.org/2000/svg" width="40" height="40" viewBox="0 0 40 40">
  <defs>
    <linearGradient id="ec2Gradient" x1="0%" y1="0%" x2="0%" y2="100%">
      <stop offset="0%" style="stop-color:#FF6B6B;stop-opacity:1" />
      <stop offset="100%" style="stop-color:#D32F2F;stop-opacity:1" />
    </linearGradient>
  </defs>
  <g>
    <!-- Server shape -->
    <rect x="10" y="5" width="20" height="30" rx="2" ry="2" fill="url(#ec2Gradient)" stroke="#1a1a1a" stroke-width="1" />
    
    <!-- Server details -->
    <rect x="12" y="8" width="16" height="3" rx="1" ry="1" fill="#ffffff" fill-opacity="0.3" />
    <rect x="12" y="13" width="16" height="3" rx="1" ry="1" fill="#ffffff" fill-opacity="0.3" />
    <rect x="12" y="18" width="16" height="3" rx="1" ry="1" fill="#ffffff" fill-opacity="0.3" />
    <rect x="12" y="23" width="16" height="3" rx="1" ry="1" fill="#ffffff" fill-opacity="0.3" />
    <rect x="12" y="28" width="16" height="3" rx="1" ry="1" fill="#ffffff" fill-opacity="0.3" />
    
    <!-- EC2 text hint -->
    <path d="M15,15 L18,15 L18,25 L15,25 M22,15 L25,15 L25,25 L22,25 M15,20 L25,20" stroke="#ffffff" stroke-width="1.5" fill="none" />
  </g>
</svg>
