<?xml version="1.0" encoding="UTF-8" standalone="no"?>
<svg xmlns="http://www.w3.org/2000/svg" width="40" height="40" viewBox="0 0 40 40">
  <defs>
    <linearGradient id="s3Gradient" x1="0%" y1="0%" x2="0%" y2="100%">
      <stop offset="0%" style="stop-color:#4CAF50;stop-opacity:1" />
      <stop offset="100%" style="stop-color:#2E7D32;stop-opacity:1" />
    </linearGradient>
  </defs>
  <g>
    <!-- Bucket shape -->
    <path d="M10,10 L30,10 L33,15 L33,30 C33,32 31,33 30,33 L10,33 C9,33 7,32 7,30 L7,15 Z" fill="url(#s3Gradient)" stroke="#1a1a1a" stroke-width="1" />
    
    <!-- Bucket rim -->
    <path d="M7,15 L33,15" stroke="#1a1a1a" stroke-width="1" />
    
    <!-- Bucket handle -->
    <path d="M13,10 C13,5 27,5 27,10" stroke="#1a1a1a" stroke-width="1.5" fill="none" />
    
    <!-- S3 text hint -->
    <path d="M15,20 C15,18 25,18 25,20 C25,22 15,22 15,24 C15,26 25,26 25,24" stroke="#ffffff" stroke-width="1.5" fill="none" />
  </g>
</svg>
